# xmcd
#
# Track frame offsets:
#	150
#	14697
#	27409
#	39939
#	56065
#	71498
#	85984
#	99219
#	110016
#	123108
#	138771
#	147409
#	168513
#	186057
#	209605
#
# Disc length: 3410 seconds
#
# Revision: 0
# Processed by: cddbd v1.5.2PL0 Copyright (c) Steve Scherf et al.
# Submitted via: audiograbber 1.83.01
#
DISCID=d20d500f
DTITLE=Daniel T. Coates - Hey, Good Lookin`
DYEAR=2008
DGENRE=Country
TTITLE0=Oklahoma Hills
TTITLE1=I Got Mexico
TTITLE2=This Little Tune
TTITLE3=Try To Move A Little Faster
TTITLE4=Hey, Good Lookin`
TTITLE5=Back In Witchita
TTITLE6=Streets Of Bakersfield
TTITLE7=Waitin` In Your Welfare Line
TTITLE8=Color Blind
TTITLE9=Up On The Hill
TTITLE10=Are You Cool Enough
TTITLE11=Wild World
TTITLE12=One After 909
TTITLE13=Amigo
TTITLE14=Daten-CD
EXTD=
EXTT0=
EXTT1=
EXTT2=
EXTT3=
EXTT4=
EXTT5=
EXTT6=
EXTT7=
EXTT8=
EXTT9=
EXTT10=
EXTT11=
EXTT12=
EXTT13=
EXTT14=
PLAYORDER=
